<svg id="Calque_1" data-name="Calque 1" xmlns="http://www.w3.org/2000/svg" viewBox="0 0 883.02 702.09"><defs><style>.cls-1{fill:#ea601c;}</style></defs><title>head</title><path class="cls-1" d="M497.27,140.64s193.32-145.35,413.85.72L878.9,158.54s189-100.24,234.85-128.88,37.23,54.42,8.59,180.43c-15.76,122.15-76.25,167-112.47,183.18-3,1.36-5.94,2.52-8.61,3.5C989.58,401.06,982,402,982,402l17.19-4.29s5,37.23,45.11,31.5c0,0-7.16,18.62-35.8,21.48,8.59,8.59,11.45,43,51.55,40.1,0,0-14.32,14.32-43,11.45,5.73,5.73,8.59,51.56,8.59,51.56s-31.5,8.59-60.14-5.73c2.86,5.73-14.32,68.74-114.56,74.46-37.24,11.46-71.61,25.78-91.65,57.28s-25.78,45.83-57.28,43c-31.51,2.87-37.24-11.45-57.28-43S590.35,634,553.12,622.51c-100.24-5.72-117.43-68.73-114.56-74.46-28.64,14.32-60.15,5.73-60.15,5.73S381.28,508,387,502.22c-28.64,2.87-43-11.45-43-11.45,40.1,2.86,43-31.51,51.56-40.1-28.64-2.86-35.8-21.48-35.8-21.48,40.09,5.73,45.1-31.5,45.1-31.5L430,404.85s-7.57-.93-19.25-5.22c-2.67-1-5.56-2.13-8.62-3.49-36.22-16.13-96.7-61-112.46-183.18C261,86.94,252.4,3.89,298.22,32.53S533.07,161.41,533.07,161.41" transform="translate(-264.45 -22.49)"/><path d="M498,141.94c23.13-17.36,50.79-30.06,77.68-40.15C638,78.45,706,71.34,771.41,84.17c49.83,9.76,96.66,30.61,139,58.48v-2.59l-32.22,17.19c-1.7.91-.19,3.49,1.52,2.59q42.38-22.49,84.6-45.27c44.31-23.87,88.72-47.66,132.27-72.89,6.92-4,13.64-8.42,20.63-12.29,5.34-3,12.79-6,18.39-2,5.79,4.16,7.27,13,8.11,19.5,1.49,11.74.83,23.78-.15,35.54-3.13,37.25-10.91,74.18-18.91,110.64-4.44,20.25-6.94,40.84-12.1,60.94a275.5,275.5,0,0,1-17.19,48.58c-19.17,40.77-51.38,76.91-94.45,92.69-5.88,2.16-13.13,4.43-18.86,5.16l.4,2.95,17.19-4.3-1.85-1a42,42,0,0,0,8.37,19.18c9.22,12,23.73,15.32,38.19,13.42l-1.45-1.9c-4.9,12.43-21.52,18.94-34.35,20.38a1.52,1.52,0,0,0-1.06,2.56c3,3.11,4.6,7.51,6.44,11.33a77.32,77.32,0,0,0,8.3,14.06c9.3,11.92,23.14,16,37.87,15.15l-1.06-2.56c-10.48,10.32-28.13,12.24-41.9,11-1.39-.12-1.86,1.68-1.06,2.57,2.35,2.59,2.89,7.4,3.55,10.69,1.19,5.86,2,11.8,2.63,17.73.83,7.33,1.51,14.7,2,22.07l1.1-1.45a87.63,87.63,0,0,1-59-5.58,1.52,1.52,0,0,0-2,2.06c.61,1.34-.51,5.44-1.08,7.4a60.56,60.56,0,0,1-6.87,14.69c-9.38,15-23.67,26.39-39.37,34.23a147.56,147.56,0,0,1-37,12.28A200.78,200.78,0,0,1,856,620.68c-7.61.59-14.57,3.21-21.77,5.73C807,635.93,780,649.26,762.29,672.88c-14.08,18.81-23.14,47.64-50.58,48.69-3.24.12-6.44-.32-9.66-.32s-6.42.44-9.67.32a35.87,35.87,0,0,1-16.16-4.08c-9.92-5.52-16.13-16.2-22-25.5-8-12.65-15.62-24.88-27-34.84-11-9.6-23.72-16.91-37-22.79-6.65-2.94-13.44-5.55-20.3-8-7.2-2.52-14.16-5.14-21.77-5.73a183.15,183.15,0,0,1-44-8.57c-19.05-6.4-37.06-16.94-50-32.51-6.41-7.7-13.33-18.12-14.26-28.44a12.37,12.37,0,0,1,0-2.35,1.52,1.52,0,0,0-2.05-2.06,87.62,87.62,0,0,1-59,5.58l1.1,1.45q.7-11.06,2-22.07c.66-5.78,1.41-11.57,2.54-17.28.68-3.42,1.21-8.45,3.65-11.14.79-.88.32-2.69-1.07-2.57-13.77,1.23-31.41-.69-41.89-11L344,492.27c14.73.89,28.58-3.23,37.87-15.15a77.32,77.32,0,0,0,8.3-14.06c1.85-3.82,3.47-8.22,6.45-11.33a1.52,1.52,0,0,0-1.06-2.56c-12.85-1.44-29.46-7.95-34.36-20.38l-1.44,1.9c14.46,1.9,29-1.46,38.18-13.42a42,42,0,0,0,8.37-19.18l-1.84,1,25.06,7.16.39-2.94c-19.56-2.52-40.2-13.68-56.3-25.67-19.19-14.28-34.93-32.83-47.07-53.38-17.51-29.64-27.68-63.13-33.33-96.94-6.64-39.72-16.71-78.8-22.18-118.77-2-14.51-3.58-29.18-3.58-43.84,0-9.13.23-19.25,4-27.76,7.11-16.12,23-4.87,33.31,1.3C346,62.89,388.42,85.4,430.58,108.2c33.27,18,66.5,36.06,100,53.59l1.72.91c1.71.91,3.22-1.68,1.52-2.59Q488.77,136.22,443.9,112C399,87.78,353.93,63.8,310,37.9c-9.77-5.77-26-19.3-36.92-8.7-5.17,5-6.77,13-7.68,19.83-1.59,12-1,24.28,0,36.3,3.2,38.14,11.19,75.94,19.42,113.26,4.6,20.9,7.1,42.14,12.68,62.84a273.47,273.47,0,0,0,17.6,47.86c20,41.38,53.6,77.58,97.83,92.74a88,88,0,0,0,17,4.32c1.72.22,2-2.5.4-3l-25.06-7.16a1.51,1.51,0,0,0-1.84,1.05,40,40,0,0,1-6.71,16.61c-8.49,12.35-22.71,15.66-36.95,13.79a1.51,1.51,0,0,0-1.45,1.9c5.7,14.47,23.13,21,37.25,22.58l-1.06-2.56c-6,6.24-8.19,15.76-13,22.89-8.7,13-22.28,17.69-37.53,16.77a1.52,1.52,0,0,0-1.06,2.56c11,10.88,29.43,13.19,44,11.89l-1.06-2.56c-2.34,2.59-3.11,6.56-3.86,9.85a176.54,176.54,0,0,0-2.83,17.57q-1.54,12.55-2.34,25.2a1.52,1.52,0,0,0,1.1,1.44,90.8,90.8,0,0,0,61.3-5.88l-2.05-2.05c-2.88,6.35,3.4,17.26,6.35,22.45,8.52,15,21.92,26.84,36.84,35.22a140.37,140.37,0,0,0,34.12,13.35c15.79,4,32.49,3.67,47.89,8.74,30.94,10.2,62.23,24.63,80.6,52.87,7.19,11.05,13.42,23.29,22.56,32.92,7.07,7.44,16,11.21,26.18,11.7,3.44.17,6.82-.26,10.25-.29s6.8.46,10.25.29a40,40,0,0,0,14.62-3.23c9.77-4.41,16.23-13.5,21.94-22.18,8.87-13.48,16.47-27.41,28.53-38.42s26.76-19.08,41.84-25.4c7.58-3.17,15.34-5.94,23.15-8.5,8.46-2.77,16.71-3.22,25.48-4.39a168.2,168.2,0,0,0,40.88-10.36c17.87-7.21,34.42-18.29,46.11-33.79,5.7-7.57,12.23-18,12.46-27.86a7.06,7.06,0,0,0-.48-3.12l-2.05,2.05a90.8,90.8,0,0,0,61.3,5.88,1.52,1.52,0,0,0,1.1-1.44q-.79-12.63-2.34-25.2c-.7-5.74-1.48-11.49-2.73-17.14-.76-3.41-1.53-7.59-4-10.28l-1.06,2.56c14.59,1.3,33-1,44-11.89a1.51,1.51,0,0,0-1.06-2.56c-15.25.92-28.83-3.8-37.53-16.77-4.78-7.13-7-16.65-13-22.89l-1.06,2.56c14.11-1.58,31.54-8.11,37.24-22.58a1.51,1.51,0,0,0-1.44-1.9c-14.25,1.87-28.46-1.44-37-13.79a40,40,0,0,1-6.71-16.61,1.51,1.51,0,0,0-1.84-1.05l-17.18,4.3c-1.6.4-1.32,3.16.39,2.94,20.38-2.62,40.76-13.5,57.18-25.6,19.12-14.08,35-32.21,47.3-52.45,18.11-29.7,28.75-63.49,34.69-97.61,1.93-11.07,3.71-22,6.12-33q3.56-16.17,6.82-32.39c3.8-19,7.27-38.07,9.86-57.27,1.93-14.33,3.5-28.8,3.5-43.28,0-9.31-.36-19.38-3.91-28.12-2.18-5.38-6-10.17-12-11.09-7.14-1.08-14,2.93-19.85,6.52-40.85,25.2-83.64,47.48-125.83,70.32Q933,128.12,880,156.28l-1.82,1,1.52,2.59,32.22-17.19a1.52,1.52,0,0,0,0-2.59c-70.16-46.25-152.47-71.24-236.73-64A382.59,382.59,0,0,0,523.2,122.68c-9.13,5.06-18.32,10.39-26.69,16.67-1.52,1.14,0,3.75,1.52,2.59Z" transform="translate(-264.45 -22.49)"/><path d="M731.58,681.31c0,8-20.83,14.5-29.53,14.5s-30.41-8.67-30.41-16.67,21.71-12.3,30.41-12.3S731.58,673.31,731.58,681.31Z" transform="translate(-264.45 -22.49)"/><path d="M918.72,226.28c46.93-.08,126.36-116,173.93-155.1,31.61-26,13.82,39.2,13.82,39.2s-42.74,239.81-144.92,244.4c-2.57-.29,12.22-38.94-10.94-41.56S890.88,242,918.72,226.28Z" transform="translate(-264.45 -22.49)"/><path d="M918.72,227.78c11.38-.16,22.06-5.83,31.32-12,13.21-8.73,25-19.55,36.29-30.62,26.28-25.79,49.86-54.13,74.87-81.11,10.28-11.08,20.74-22.32,32.51-31.85,2.86-2.32,9.3-7.87,13.29-4.91,3.18,2.35,3,8.48,3,11.92-.09,11.78-3.41,23-5.64,34.47a682.24,682.24,0,0,1-34.88,120.45c-10.36,26.14-22.73,52-39.54,74.67-14,18.85-32.34,36.79-55.78,42.61a64,64,0,0,1-7.91,1.46c-.56.06-4.35.43-3.66.77.34.17.23.7.21-.13a10.06,10.06,0,0,1,.17-1.45c.63-5.18,1.88-10.24,2.27-15.46.41-5.51.32-11.56-2.17-16.62-2.72-5.54-7.24-7.17-12.91-8.38-12.39-2.66-21.62-16.44-27.57-26.59-7.22-12.31-13.94-28-12.1-42.63.77-6.18,3.57-11.62,9-14.85A1.5,1.5,0,0,0,918,225c-11.09,6.55-11.89,20.12-9.76,31.59,2.79,15,10.24,29.68,19.67,41.62,4,5.07,8.62,10,14.19,13.37,5,3,11.85,2.4,16,6.5,8.92,8.86,2.37,24.2,1.78,34.76-.27,4.62,3.58,3.44,7.15,3a69.27,69.27,0,0,0,16.33-4.13c10.84-4.2,20.53-10.85,29.08-18.66,20.5-18.73,35.09-43.56,47-68.36,21.47-44.68,35.79-93.07,46-141.48,2-9.32,4.28-18.72,5.87-28.11,1.39-8.13,4.2-20.87-.84-28.3-6.19-9.14-18.78,3.11-23.72,7.49-26.89,23.83-49.61,52.35-73.82,78.8-12.89,14.09-26,28-40.18,40.87-11.31,10.26-23.54,20.55-37.6,26.81a42.1,42.1,0,0,1-16.43,4A1.5,1.5,0,0,0,918.72,227.78Z" transform="translate(-264.45 -22.49)"/><path d="M485.39,238.6c-46.93-.08-126.35-116-173.92-155.1-31.61-26-13.82,39.2-13.82,39.2s42.73,239.81,144.91,244.4c2.58-.29-12.22-38.94,10.95-41.56S513.23,254.27,485.39,238.6Z" transform="translate(-264.45 -22.49)"/><path d="M485.39,237.1c-12.78-.17-24.71-7.71-34.73-15-14.42-10.43-27.3-23-39.69-35.71-26.8-27.52-51.11-57.36-78-84.81-5.28-5.39-10.67-10.69-16.34-15.66-4.3-3.78-9.17-8.51-14.94-9.81-9.21-2.07-10.61,8.82-10.56,15.42.1,12.3,3.55,24.1,5.91,36.06,8.7,44.25,21.36,88.26,38.88,129.83,11.05,26.2,24.29,52.15,42.64,74.06,15.18,18.12,35.14,33.93,59.32,36.71,4,.45,6.73,1.07,6.34-3.51-.47-5.44-2-10.73-2.36-16.2-.42-6.18-.38-14.25,4.74-18.66,2.7-2.33,5.82-2.38,9.08-3.2a23.6,23.6,0,0,0,6.66-3c11.94-7.46,20.51-21,26.37-33.48,5.65-12,10.94-27.4,6.9-40.68a20.93,20.93,0,0,0-9.49-12.22,1.5,1.5,0,0,0-1.51,2.59c12.43,7.35,10,24.46,6.42,36.13-4.4,14.47-12.43,29-23.34,39.54-4,3.85-8.5,7.33-14,8.45-5.71,1.17-10.17,3.11-12.77,8.69-4.35,9.34-2,22.29.3,32a4,4,0,0,1,.14,1.78c.78-1.53-1.78-1-3.07-1.17a64.54,64.54,0,0,1-9-1.69,71.31,71.31,0,0,1-15.38-6c-10.59-5.59-19.81-13.45-27.92-22.2-18.46-19.9-31.78-44.36-42.86-69C324,224,310.73,178.55,301.21,133c-1.83-8.78-4-17.59-5.52-26.42a91.3,91.3,0,0,1-1.53-15.72c0-3.29-.06-9,2.95-11.23,4.19-3.11,11.08,3.09,14,5.47,5.3,4.36,10.29,9.13,15.16,14,25.6,25.37,48.49,53.35,73.16,79.59,12,12.73,24.26,25.25,37.63,36.53,10.19,8.61,21.24,17,33.79,21.86a42.11,42.11,0,0,0,14.56,3A1.5,1.5,0,0,0,485.39,237.1Z" transform="translate(-264.45 -22.49)"/></svg>