<svg height="512" viewBox="0 0 64 64" width="512" xmlns="http://www.w3.org/2000/svg"><g id="Protection_network" data-name="Protection network"><g fill="#ff5023"><path d="m41.629 4.071.742 1.858-9.371 3.748v5.323h-2v-6.677"/><path d="m15.414 60h-10.414v-2h9.586l5.707-5.707 1.414 1.414z"/><path d="m50 21h8v2h-8z"/><path d="m50 29h8v2h-8z"/><path d="m48 18h-2v-7.554l8.47-5.294 1.06 1.696-7.53 4.706z"/><path d="m5 48h13v2h-13z"/><path d="m5 38h10v2h-10z"/><path d="m31 8.323 10.629-4.252"/></g><path d="m51 18v18.81a23.984 23.984 0 0 1 -13.73 21.69l-5.27 2.5-5.27-2.5a23.984 23.984 0 0 1 -13.73-21.69v-18.81l19-4z" fill="#4e901e"/><path d="m32 18.088-15 3.158v15.566a20.09 20.09 0 0 0 11.437 18.075l3.563 1.687 3.562-1.687a20.089 20.089 0 0 0 11.438-18.075v-15.566z" fill="#91dc5a"/><circle cx="42" cy="5" fill="#ffcd00" r="3"/><circle cx="5" cy="59" fill="#ffcd00" r="3"/><circle cx="59" cy="22" fill="#ffcd00" r="3"/><circle cx="59" cy="30" fill="#ffcd00" r="3"/><circle cx="55" cy="6" fill="#ffcd00" r="3"/><circle cx="5" cy="49" fill="#ffcd00" r="3"/><circle cx="5" cy="39" fill="#ffcd00" r="3"/><path d="m19.471 46.4a20.03 20.03 0 0 0 8.966 8.485l3.563 1.689 3.562-1.687a20.089 20.089 0 0 0 11.438-18.075v-15.566h-.008c-.154 12.354-11.876 22.632-27.521 25.154z" fill="#7ed63e"/><path d="m29.293 41.707a1 1 0 0 0 1.414 0l9.9-9.9a1 1 0 0 0 -1.414-1.414l-9.193 9.193-4.95-4.95a1 1 0 0 0 -1.414 1.414z" fill="#f1f2f2"/></g></svg>