<?xml version="1.0" encoding="iso-8859-1"?>
<!-- Generator: Adobe Illustrator 19.0.0, SVG Export Plug-In . SVG Version: 6.00 Build 0)  -->
<svg version="1.1" id="Layer_1" xmlns="http://www.w3.org/2000/svg" xmlns:xlink="http://www.w3.org/1999/xlink" x="0px" y="0px"
	 viewBox="0 0 512 512" style="enable-background:new 0 0 512 512;" xml:space="preserve">
<path style="fill:#006DF0;" d="M220.996,380.119c0,0,30.759,88.544,185.175-58.65C406.172,321.469,220.996,380.119,220.996,380.119z
	"/>
<path style="fill:#00479B;" d="M249.067,371.234c-16.878,5.346-28.071,8.891-28.071,8.891s20.199,58.129,110.013,1.878
	C277.156,406.465,255.704,382.418,249.067,371.234z"/>
<path style="fill:#006DF0;" d="M144.973,136.391c0,0,8.279-26.377,41.715-30.557c0,0,116.854-14.629,221.965,142.951
	L144.973,136.391z"/>
<path style="fill:#00479B;" d="M205.72,124.642c0,0,74.504-9.323,158.042,67.141c-90.905-96.735-177.074-85.949-177.074-85.949
	c-33.437,4.18-41.714,30.557-41.714,30.557l23.553,10.039C173.939,138.35,184.993,127.233,205.72,124.642z"/>
<path style="fill:#57A4FF;" d="M421.045,260.022c-5.331-5.114-131.95-125.223-251.704-125.223C30.049,134.8,0,281.52,0,285.831
	c0,4.679,0.739,8.783,2.205,12.699c0.619,1.011,5.11,14.716,24.106,7.227c0,0,0.285-0.114,0,0
	c-14.554,9.057-5.604,17.481-5.123,17.929l0.001,0.001l0,0c14.635,13.655,81.708,65.929,169.052,65.929c0.009,0,0.016,0,0.023,0
	c68.938,0,144.738-24.811,225.287-73.744c8.959-5.443,14.935-15.279,16.029-26.378C432.67,278.392,428.743,267.404,421.045,260.022z
	"/>
<path style="fill:#2488FF;" d="M421.045,260.022c-2.372-2.275-28.759-27.31-67.856-54.403
	c24.698,19.009,40.461,33.968,42.268,35.702c7.698,7.382,11.626,18.369,10.534,29.471c-1.094,11.1-7.069,20.935-16.029,26.378
	c-80.55,48.934-156.349,73.744-225.287,73.744c-0.007,0-0.014,0-0.023,0c-58.904,0-108.585-23.775-139.185-43.445
	c20.763,17.582,84.125,62.145,164.772,62.145c0.009,0,0.016,0,0.023,0c68.938,0,144.738-24.811,225.287-73.744
	c8.959-5.443,14.935-15.279,16.029-26.378C432.67,278.391,428.743,267.404,421.045,260.022z"/>
<path style="fill:#005ECE;" d="M169.341,134.8c-8.528,0-16.641,0.557-24.368,1.59c-71.966,10.683-87.703,90.637-87.703,90.637
	l15.708,6.503c57.636-89.819,80.623-15.708,80.623-15.708c53.986,116.871,252.571,103.647,252.571,103.647l2.482-72.684
	C373.29,217.883,268.948,134.8,169.341,134.8z M256.255,220.801c-7.949,14.422-26.084,19.67-40.507,11.721
	c-14.422-7.949-38.582-36.508-30.633-50.93c7.949-14.423,44.996-9.246,59.418-1.297
	C258.956,188.243,264.203,206.379,256.255,220.801z"/>
<g>
	<path style="fill:#00479B;" d="M300.613,217.682c-4.23-2.508-8.493-4.946-12.672-7.247c-3.791-2.088-5.171-6.853-3.083-10.645
		c2.088-3.79,6.856-5.169,10.645-3.083c4.323,2.379,8.73,4.901,13.102,7.492c3.723,2.207,5.159,7.146,2.746,10.737
		C307.548,220.599,301.867,218.425,300.613,217.682z"/>
	<path style="fill:#00479B;" d="M349.96,250.84c-10.057-7.546-20.281-14.725-30.39-21.336c-3.622-2.369-4.637-7.225-2.268-10.848
		c2.369-3.623,7.225-4.637,10.848-2.268c10.388,6.794,20.892,14.168,31.216,21.916c3.462,2.598,4.126,7.482,1.565,10.971
		C357.181,254.384,351.37,251.898,349.96,250.84z"/>
</g>
<path style="fill:#FFE477;" d="M481.462,236.231c27.189,0,30.538,22.041,30.538,49.231c0,27.19-3.348,49.231-30.538,49.231
	c-27.19,0-138.818-22.041-138.818-49.231S454.272,236.231,481.462,236.231z"/>
<path style="fill:#FFD422;" d="M408.469,285.462c0-18.395,51.092-34.431,92.565-42.883c-4.498-4.035-10.784-6.349-19.573-6.349
	c-27.189,0-138.818,22.041-138.818,49.231c0,27.19,111.629,49.231,138.818,49.231c8.789,0,15.075-2.313,19.573-6.349
	C459.562,319.894,408.469,303.857,408.469,285.462z"/>
<path style="fill:#2488FF;" d="M169.968,298.89c12.815,5.939,7.841,16.253,1.903,29.067c-5.939,12.815-10.594,23.275-23.409,17.337
	s-38.426-30.427-32.487-43.242C121.914,289.237,157.155,292.951,169.968,298.89z"/>
<path style="fill:#006DF0;" d="M131.924,293.905c-7.571,0.947-13.757,3.419-15.948,8.147c-5.939,12.814,19.673,37.303,32.487,43.242
	c10.125,4.693,15.156-0.858,19.752-9.713c-0.96-0.275-1.967-0.646-3.033-1.141C153.22,328.895,130.116,307.192,131.924,293.905z"/>
<path style="fill:#FFE477;" d="M152.887,319.159c-4.498,9.706-8.268,18.046-15.398,18.948c3.988,3.199,7.859,5.744,10.972,7.187
	c12.814,5.939,17.47-4.522,23.409-17.337c5.939-12.814,10.912-23.129-1.903-29.067c-3.114-1.443-7.557-2.752-12.576-3.727
	C161.313,301.186,157.387,309.453,152.887,319.159z"/>
<path style="fill:#FFD422;" d="M150.543,324.153c-3.594,7.431-7.187,13.213-13.053,13.955c3.988,3.199,7.859,5.744,10.972,7.187
	c10.125,4.693,15.156-0.857,19.752-9.713c-0.96-0.275-1.967-0.646-3.033-1.141C161.117,332.556,155.766,328.803,150.543,324.153z"/>
<path style="fill:#00479B;" d="M345.587,277.754l164.192-18.639c-3.213-13.751-10.829-22.884-28.324-22.884
	C456.889,236.231,363.397,254.226,345.587,277.754z"/>
<path style="fill:#003068;" d="M481.457,236.231c-24.567,0-118.06,17.995-135.868,41.523l75.9-8.616
	c17.853-11.314,50.977-20.737,79.549-26.559C496.541,238.54,490.247,236.231,481.457,236.231z"/>
<path style="fill:#00479B;" d="M345.587,293.17l164.192,18.639c-3.213,13.751-10.829,22.884-28.324,22.884
	C456.889,334.693,363.397,316.698,345.587,293.17z"/>
<path style="fill:#003068;" d="M481.457,334.693c-24.567,0-118.06-17.995-135.868-41.523l75.9,8.616
	c17.853,11.314,50.977,20.737,79.549,26.559C496.541,332.384,490.247,334.693,481.457,334.693z"/>
<circle style="fill:#3E3D42;" cx="64.084" cy="233.096" r="12.893"/>
<g>
</g>
<g>
</g>
<g>
</g>
<g>
</g>
<g>
</g>
<g>
</g>
<g>
</g>
<g>
</g>
<g>
</g>
<g>
</g>
<g>
</g>
<g>
</g>
<g>
</g>
<g>
</g>
<g>
</g>
</svg>
